<?xml version="1.0" encoding="utf-8"?>
<!-- Svg Vector Icons : http://www.onlinewebfonts.com/icon -->
<!DOCTYPE svg PUBLIC "-//W3C//DTD SVG 1.1//EN" "http://www.w3.org/Graphics/SVG/1.1/DTD/svg11.dtd">
<svg version="1.1" xmlns="http://www.w3.org/2000/svg" xmlns:xlink="http://www.w3.org/1999/xlink" x="0px" y="0px" viewBox="0 0 1000 1000" enable-background="new 0 0 1000 1000" xml:space="preserve">
<metadata> Svg Vector Icons : http://www.onlinewebfonts.com/icon </metadata>
<g><path style="fill:#EFEFEF;" d="M500,766.9V633.5l177.2,177.2L500,990V856.6c-97.3,0-181-35.1-251.2-105.3C178.6,681.1,143.5,597.3,143.5,500c0-69.5,18.8-132.8,56.3-189.8l64.6,64.6c-20.8,37.5-31.3,79.3-31.3,125.1c0,73.7,26.1,136.6,78.2,188.7C363.5,740.9,426.4,766.9,500,766.9L500,766.9z M500,143.4c97.3,0,181,35.1,251.2,105.3c70.2,70.2,105.3,153.9,105.3,251.2c0,69.5-18.8,132.8-56.3,189.8l-64.6-64.6c20.8-37.5,31.3-79.3,31.3-125.1c0-73.7-26.1-136.6-78.2-188.7c-52.1-52.1-115-78.2-188.7-78.2v133.4L322.7,189.3L500,10L500,143.4L500,143.4z"/></g>
</svg>
